<?xml version="1.0" encoding="utf-8"?>
<!-- Generator: Adobe Illustrator 26.0.2, SVG Export Plug-In . SVG Version: 6.00 Build 0)  -->
<svg version="1.1" id="Layer_1" xmlns="http://www.w3.org/2000/svg" xmlns:xlink="http://www.w3.org/1999/xlink" x="0px" y="0px"
	 viewBox="0 0 363 109.7" style="enable-background:new 0 0 363 109.7;" xml:space="preserve">
<style type="text/css">
	.st0{fill:#F2CF22;}
	.st1{fill:#F8C319;}
	.st2{fill:#126B37;}
	.st3{fill:#101820;}
</style>
<path class="st0" d="M177.8,81.3"/>
<g>
	<path class="st1" d="M169.1,74.4c0.3,3.8,1.9,6.9,4.7,8.8c2.3,1.6,4.9,1.9,7.9,0.8c3.7-1.3,4.9-4.6,5.2-6c0.4-1.9,1-6.4-3.8-14.1
		c-3.7-5.8-5.8-11.4-5.8-11.4C170.3,61.7,168.8,70.1,169.1,74.4z"/>
</g>
<g>
	<path class="st2" d="M198.2,4.9L197,2.6c-0.1-0.2-0.3-0.1-0.3,0.1c-1.5,9.3-5.5,12.8-9.7,16.4c-2.5,2.1-5.1,4.4-7.2,8
		c-3.9,6.6-3.9,12.7-1.7,18.6c0.1,0.1,0.2,0.2,0.3,0c1.4-2,3.5-3.9,10-9.8c10.6-9.7,10.2-18.2,10.2-18.2c1.9,12.8-9.6,19-18.9,32
		c0,0.1,0,0.1,0,0.2c0.9,2.4,2.2,5.1,2.9,6.4c0.1,0.1,0.3,0.1,0.3-0.1c0.7-3.5,4.2-9.9,12.8-19.8C207.5,22.9,200.8,9.8,198.2,4.9z"
		/>
</g>
<g>
	<g>
		<polygon class="st3" points="76.2,105 83.8,105 83.8,103.6 77.7,103.6 77.7,99 83.8,99 83.8,97.6 77.7,97.6 77.7,92.8 83.8,92.8 
			83.8,91.5 76.2,91.5 		"/>
		<path class="st3" d="M97.4,97.9l-2.2-0.6c-1.7-0.5-2.4-1.2-2.4-2.5s1.1-2.2,2.7-2.2c1.8,0,2.9,1,2.9,2.8v0.1h1.5v-0.1
			c0-2.5-1.7-4.1-4.3-4.1c-2.5,0-4.2,1.5-4.2,3.6c0,1.9,0.9,3,2.9,3.5l2.2,0.7c1.5,0.4,2.2,1.2,2.2,2.4c0,1.5-1.1,2.4-2.9,2.4
			c-2.1,0-3.4-1.2-3.4-3.2v-0.1H91v0.1c0,2.8,1.9,4.5,4.8,4.5c2.7,0,4.4-1.5,4.4-3.8C100.2,99.6,99.3,98.4,97.4,97.9z"/>
		<path class="st3" d="M113.8,97.9l-2.2-0.6c-1.7-0.5-2.4-1.2-2.4-2.5s1.1-2.2,2.7-2.2c1.8,0,2.9,1,2.9,2.8v0.1h1.5v-0.1
			c0-2.5-1.7-4.1-4.3-4.1c-2.5,0-4.2,1.5-4.2,3.6c0,1.9,0.9,3,2.9,3.5l2.2,0.7c1.5,0.4,2.2,1.2,2.2,2.4c0,1.5-1.1,2.4-2.9,2.4
			c-2.1,0-3.4-1.2-3.4-3.2v-0.1h-1.5v0.1c0,2.8,1.9,4.5,4.8,4.5c2.7,0,4.4-1.5,4.4-3.8C116.6,99.6,115.6,98.4,113.8,97.9z"/>
		<polygon class="st3" points="124.5,105 132.2,105 132.2,103.6 126,103.6 126,99 132.2,99 132.2,97.6 126,97.6 126,92.8 
			132.2,92.8 132.2,91.5 124.5,91.5 		"/>
		<polygon class="st3" points="148.7,102.4 142.2,91.5 142.1,91.5 140.6,91.5 140.6,105 142,105 142,94 148.6,105 150.1,105 
			150.1,91.5 148.7,91.5 		"/>
		<polygon class="st3" points="157.4,92.9 161.4,92.9 161.4,105 162.9,105 162.9,92.9 167,92.9 167,91.5 157.4,91.5 		"/>
		<rect x="174.2" y="91.5" class="st3" width="1.5" height="13.5"/>
		<path class="st3" d="M189,91.5h-1.3l-4.5,13.4v0.1h1.6l0.8-2.4h5.7l0.8,2.3v0.1h1.6L189,91.5L189,91.5z M190.8,101.2h-4.9l2.4-7.6
			L190.8,101.2z"/>
		<polygon class="st3" points="202.5,91.5 201.1,91.5 201.1,105 208.5,105 208.5,103.6 202.5,103.6 		"/>
		<path class="st3" d="M232.6,91.2c-4.5,0-6.9,3.5-6.9,7c0,4.6,3.5,7,6.9,7c4.5,0,6.9-3.5,6.9-7C239.5,93.6,236,91.2,232.6,91.2z
			 M238,98.2c0,2.8-1.9,5.7-5.4,5.7c-3.6,0-5.4-2.9-5.4-5.7c0-2.8,1.9-5.7,5.4-5.7C236.1,92.6,238,95.4,238,98.2z"/>
		<rect x="247.4" y="91.5" class="st3" width="1.5" height="13.5"/>
		<polygon class="st3" points="259,91.5 257.6,91.5 257.6,105 265,105 265,103.6 259,103.6 		"/>
		<path class="st3" d="M278.1,97.9l-2.2-0.6c-1.7-0.5-2.4-1.2-2.4-2.5s1.1-2.2,2.7-2.2c1.8,0,2.9,1,2.9,2.8v0.1h1.5v-0.1
			c0-2.5-1.7-4.1-4.3-4.1c-2.5,0-4.2,1.5-4.2,3.6c0,1.9,0.9,3,2.9,3.5l2.2,0.7c1.5,0.4,2.2,1.2,2.2,2.4c0,1.5-1.1,2.4-2.9,2.4
			c-2.1,0-3.4-1.2-3.4-3.2v-0.1h-1.5v0.1c0,2.8,1.9,4.5,4.8,4.5c2.7,0,4.4-1.5,4.4-3.8C280.9,99.6,279.9,98.4,278.1,97.9z"/>
	</g>
	<g>
		<path class="st3" d="M19.6,53.1h1.1c1.1,0,1.4,0.3,1.4,0.3c0.7,0.7,0.2,1.8-0.7,3.4l-4,6.9l-4.7-7.9c-0.8-1.2-0.8-1.7-0.9-1.9
			c-0.1-1.1,2.7-1,2.7-1v-1.3H4.2V53h0.3c1,0,1.6,0.2,2,0.5c0.3,0.3,0.9,1.1,2.4,3.5l6,9.8c0,0-0.1,6.2-0.2,6.7
			c-0.1,0.5-0.3,0.8-0.6,1c-0.4,0.2-1,0.3-2,0.3h-0.7v1.3h10.8v-1.3h-0.3c-1.4,0-2-0.2-2.3-0.3c-0.3-0.2-0.6-0.5-0.7-1s-0.2-7-0.2-7
			l5.4-8.9c1-1.7,1.9-2.9,2.5-3.5s1.5-1,2.5-1.1h0.2v-1.3h-9.8v1.4C19.5,53.1,19.6,53.1,19.6,53.1z"/>
		<path class="st3" d="M112.5,52.9h0.3c0.8,0,2.1,0.2,2.7,0.4c0.5,0.1,1,0.9,1,2.1v12.2L113,63l-8.7-11.5h-7.5V53h0.3
			c1.6,0,2.2,0.1,2.4,0.2c0.3,0.1,0.5,0.5,0.7,1c0.2,0.6,0.2,1.8,0.2,3.6v12.8c0,1.8-0.1,2.4-0.2,2.7c-0.1,0.3-0.4,0.6-0.9,0.9
			c-0.6,0.3-1.4,0.5-2.5,0.6h-0.2v1.3h10.2v-1.3l-1.1-0.1c-1.2-0.1-1.9-0.5-2.2-1c-0.1-0.2-0.1-1.1-0.1-2c0-0.4,0-0.8,0-1.2V56.7
			l15,20h1.2V56.6c0-1,0.1-1.7,0.2-2.1c0.1-0.4,0.5-0.7,1-1c0.6-0.3,1.3-0.5,2.3-0.6h0.2v-1.3h-10.8V52.9z"/>
		<path class="st3" d="M312.3,52.9h0.3c0.8,0,2.1,0.2,2.7,0.4c0.5,0.1,1,0.9,1,2.1v12.2l-3.5-4.6l-8.7-11.5h-7.5V53h0.3
			c1.6,0,2.2,0.1,2.4,0.2c0.3,0.1,0.5,0.5,0.7,1c0.2,0.6,0.2,1.8,0.2,3.6v12.8c0,1.8-0.1,2.4-0.2,2.7c-0.1,0.3-0.4,0.6-0.9,0.9
			c-0.6,0.3-1.4,0.5-2.5,0.6h-0.2v1.3h10.2v-1.3l-1.1-0.1c-1.2-0.1-1.9-0.5-2.2-1c-0.1-0.2-0.1-1.1-0.1-2c0-0.4,0-0.8,0-1.2V56.7
			l15,20h1.2V56.6c0-1,0.1-1.7,0.2-2.1c0.1-0.4,0.5-0.7,1-1c0.6-0.3,1.3-0.5,2.3-0.6h0.2v-1.3h-10.8V52.9z"/>
		<path class="st3" d="M222.7,68.8c-0.4,1.5-0.9,2.8-1.4,3.6c-0.5,0.6-0.9,1-1.6,1.2c-1.1,0.3-3.1,0.3-4.8,0.3H213
			c-1.3,0-2.2-1-2.4-2.6c0-0.3,0-0.5,0-0.9V57.9c0-2,0.1-3.2,0.2-3.7c0.1-0.5,0.3-0.8,0.6-0.9c0.2-0.1,0.8-0.3,2.2-0.3h1.3v-1.3
			h-12.1V53h0.8c1.5,0,2,0.2,2.2,0.3c0.3,0.2,0.5,0.5,0.6,1s0.2,1.8,0.2,3.7v11.8c0,2.5-0.1,3.4-0.2,3.8c-0.1,0.5-0.3,0.8-0.7,1.1
			c-0.4,0.2-1,0.3-2,0.3h-1v1.3h21l0.2-7.6L222.7,68.8L222.7,68.8z"/>
		<path class="st3" d="M230.2,53h0.8c1.5,0,2,0.2,2.2,0.3c0.3,0.2,0.5,0.5,0.6,1s0.2,1.8,0.2,3.7v11.8c0,2-0.1,3.3-0.2,3.8
			c-0.1,0.5-0.3,0.8-0.6,1c-0.4,0.2-1,0.3-2,0.3h-1v1.3h11.5v-1.3h-1c-1.3,0-1.8-0.2-2.1-0.4c-0.3-0.2-0.5-0.6-0.6-1.1
			c-0.1-0.6-0.1-1.8-0.1-3.7V57.9c0-2,0.1-3.2,0.2-3.7c0.1-0.5,0.3-0.8,0.6-0.9c0.2-0.1,0.8-0.3,2.2-0.3h0.8v-1.3h-11.5L230.2,53
			L230.2,53z"/>
		<path class="st3" d="M265.1,53h1.2c0.2,0,0.5,0,0.7,0.1c1,0.2,1.1,0.7,1.1,0.9c0,0.4-0.4,1.8-1.6,4.6l-4.7,11.1l-5.7-13.4
			c-0.7-1.6-0.8-2.1-0.8-2.3c0-0.4,0.2-0.7,0.5-0.8s0.9-0.3,2.5-0.3h0.3v-1.3h-10.9V53h0.3c1.1,0,1.9,0.2,2.3,0.6
			c0.5,0.4,0.9,1.1,1.4,2.2c0.4,0.9,0.6,1.5,0.7,1.8l8.4,19.3h1.4l7.2-17.2l1.6-3.8c0.4-0.9,0.9-1.7,1.4-2.1
			c0.5-0.5,1.1-0.7,1.8-0.7h0.3v-1.3H265L265.1,53z"/>
		<path class="st3" d="M279.8,53h0.8c1.5,0,2,0.2,2.2,0.3c0.3,0.2,0.5,0.5,0.6,1s0.2,1.8,0.2,3.7v11.8c0,2-0.1,3.3-0.2,3.8
			s-0.3,0.8-0.6,1c-0.4,0.2-1,0.3-2,0.3h-1v1.3h11.5v-1.3h-1c-1.3,0-1.8-0.2-2.1-0.4c-0.3-0.2-0.5-0.6-0.6-1.1
			c-0.1-0.6-0.1-1.8-0.1-3.7V57.9c0-2,0.1-3.2,0.2-3.7s0.3-0.8,0.6-0.9c0.2-0.1,0.8-0.3,2.2-0.3h0.8v-1.3h-11.5V53z"/>
		<path class="st3" d="M59.1,64c0-3.8-1.3-6.9-3.8-9.1c-2.5-2.2-5.6-3.3-9.3-3.4h-0.1c-3.7,0-6.8,1.2-9.3,3.4s-3.8,5.3-3.8,9.1v0.3
			c0,3.8,1.3,6.9,3.8,9.1s5.6,3.3,9.3,3.4l0,0c0,0,0,0,0.1,0c0,0,0,0,0.1,0l0,0c3.7,0,6.8-1.2,9.3-3.4c2.5-2.2,3.8-5.3,3.8-9.1
			L59.1,64L59.1,64z M53.9,69.3c-0.7,2.2-2.4,4.6-4.6,5.2c-1,0.3-2.2,0.5-3.3,0.5c-1.2,0-2.3-0.2-3.3-0.5c-2.2-0.7-3.9-3-4.6-5.2
			c-0.4-1.5-0.7-3.2-0.7-5.1l0,0c0,0,0-0.1,0-0.2l0,0c0-1.9,0.2-3.6,0.7-5.1c0.7-2.2,2.4-4.6,4.6-5.2c1-0.3,2.2-0.5,3.3-0.5
			c1.2,0,2.3,0.2,3.3,0.5c2.2,0.7,3.9,3,4.6,5.2c0.4,1.5,0.7,3.2,0.7,5.1v0.2C54.5,66.2,54.3,67.9,53.9,69.3z"/>
		<path class="st3" d="M143.6,65.8v1.4h0.8c1.1,0,1.6,0.1,1.9,0.2c0.3,0.1,0.5,0.4,0.6,0.7c0.1,0.3,0.1,1.5,0.1,2.4
			s-0.1,1.7-0.4,2.2c-0.3,0.5-0.8,0.9-1.6,1.3c-1,0.6-4.1,1.2-6.9,0.3l0,0c-2.2-0.7-3.8-3-4.5-5.1c-0.4-1.4-0.7-3-0.7-4.9v-0.5
			c0-1.8,0.3-3.4,0.7-4.8c0.6-2.1,2.6-5.6,7.7-5.6c1.9,0,3.4,0.6,4.8,1.9c2.5,2.4,2.6,5.5,2.6,5.5h2.1v-8.6h-2.1l-0.1,0.9
			c0,0.2-0.1,0.4-0.1,0.6c-2.9-2.5-7.5-2.4-7.5-2.4c-3.6,0.1-6.7,1.3-9.1,3.4c-2.5,2.2-3.8,5.3-3.9,9.1v0.6c0.1,3.8,1.4,6.9,3.9,9.1
			s5.5,3.3,9.1,3.4h0.6c1.5-0.1,3.2-0.5,4.9-1.1c1.4-0.5,2.6-0.8,3.5-0.8c0.4,0,1,0.1,1,0.1v-2.9c0-2,0.1-3.3,0.2-3.9
			c0.1-0.5,0.3-0.8,0.7-1s1.1-0.3,2.2-0.3h0.3v-1.4h-10.8V65.8z"/>
		<path class="st3" d="M80.1,51.6V53c0,0,2.1,0.1,2.7,0.4c0.3,0.2,0.4,0.4,0.5,0.6c0.1,0.3,0.2,0.9,0.2,2.6v4.6l0,0v4.4
			c0,1.8-0.1,3.1-0.2,3.9c-0.1,0.7-0.4,1.4-0.8,2c-0.4,0.7-1.1,1.2-2.1,1.7s-2.1,0.7-3.3,0.7c-1.2,0-2.3-0.2-3.3-0.7
			c-0.9-0.5-1.6-1-2.1-1.7c-0.4-0.7-0.7-1.4-0.8-2c-0.1-0.8-0.2-2.1-0.2-3.9v-3.9l0,0v-3.8c0-2,0.1-3.2,0.2-3.7s0.3-0.8,0.6-0.9
			c0.2-0.1,0.8-0.3,2.2-0.3h0.7v-1.3H62.9V53h0.8c1.5,0,2,0.2,2.2,0.3c0.3,0.2,0.5,0.5,0.6,1s0.2,1.8,0.2,3.7v7.5V68
			c0,2,0.3,3.6,1,4.8c0.7,1.2,1.8,2.2,3.3,2.9c1.5,0.7,3.4,1.1,5.6,1.1c1.8,0,3.5-0.3,4.9-0.9s2.5-1.4,3.3-2.4s1.3-2,1.4-3.1
			c0.2-1,0.2-2.6,0.2-4.6v-8c0-1.4,0.1-2.4,0.2-2.9c0.1-0.4,0.4-0.9,0.9-1.2C88.2,53.1,90,53,90,53v-1.3L80.1,51.6z"/>
		<path class="st3" d="M342,65.8v1.4h0.8c1.1,0,1.6,0.1,1.9,0.2s0.5,0.4,0.6,0.7c0.1,0.3,0.1,1.5,0.1,2.4s-0.1,1.7-0.4,2.2
			s-0.8,0.9-1.6,1.3c-1,0.6-4.1,1.2-6.9,0.3l0,0c-2.2-0.7-3.8-3-4.5-5.1c-0.4-1.4-0.7-3-0.7-4.9v-0.5c0-1.8,0.3-3.4,0.7-4.8
			c0.6-2.1,2.6-5.6,7.7-5.6c1.9,0,3.4,0.6,4.8,1.9c2.5,2.4,2.6,5.5,2.6,5.5h2.1v-8.6h-2.1l-0.1,0.9c0,0.2-0.1,0.4-0.1,0.6
			c-2.9-2.5-7.5-2.4-7.5-2.4c-3.6,0.1-6.7,1.3-9.1,3.4c-2.5,2.2-3.8,5.3-3.9,9.1v0.6c0.1,3.8,1.4,6.9,3.9,9.1s5.5,3.3,9.1,3.4h0.6
			c1.5-0.1,3.2-0.5,4.9-1.1c1.4-0.5,2.6-0.8,3.5-0.8c0.4,0,1,0.1,1,0.1v-2.9c0-2,0.1-3.3,0.2-3.9c0.1-0.5,0.3-0.8,0.7-1
			c0.4-0.2,1.1-0.3,2.2-0.3h0.3v-1.4H342V65.8z"/>
	</g>
	<g>
		<g>
			<path class="st3" d="M359.3,53.2c-0.2-0.4-0.4-0.7-0.6-0.9c-0.3-0.3-0.6-0.5-0.9-0.6c-0.7-0.3-1.6-0.3-2.3,0
				c-0.4,0.2-0.7,0.4-0.9,0.6c-0.3,0.3-0.5,0.6-0.6,0.9c-0.2,0.4-0.2,0.7-0.2,1.1s0.1,0.8,0.2,1.1c0.2,0.4,0.4,0.7,0.6,0.9
				c0.3,0.3,0.6,0.5,0.9,0.6c0.4,0.2,0.7,0.2,1.1,0.2s0.8-0.1,1.1-0.2c0.4-0.2,0.7-0.4,0.9-0.6c0.3-0.3,0.5-0.6,0.6-0.9
				c0.2-0.4,0.2-0.7,0.2-1.1C359.5,54,359.4,53.6,359.3,53.2z M358.9,54.4c0,0.3-0.1,0.6-0.2,0.9c-0.1,0.3-0.3,0.5-0.5,0.7
				s-0.5,0.4-0.7,0.5c-0.6,0.2-1.3,0.2-1.8,0c-0.3-0.1-0.5-0.3-0.7-0.5s-0.4-0.5-0.5-0.7c-0.1-0.3-0.2-0.6-0.2-0.9
				c0-0.3,0.1-0.6,0.2-0.9c0.1-0.3,0.3-0.5,0.5-0.7s0.5-0.4,0.7-0.5c0.3-0.1,0.6-0.2,0.9-0.2s0.6,0.1,0.9,0.2
				c0.3,0.1,0.5,0.3,0.7,0.5s0.4,0.5,0.5,0.7C358.9,53.7,358.9,54.1,358.9,54.4z"/>
			<path class="st3" d="M357.2,54.5c0.1,0,0.2-0.1,0.3-0.2c0.1-0.1,0.1-0.2,0.2-0.3c0-0.1,0.1-0.2,0.1-0.4c0-0.3-0.1-0.5-0.2-0.7
				c-0.2-0.2-0.4-0.2-0.8-0.2h-1.2V56h0.5v-1.3h0.4l0.9,1.3h0.6l-0.9-1.3C357.1,54.6,357.1,54.6,357.2,54.5z M357.2,53.7
				c0,0.1,0,0.2-0.1,0.2c0,0.1-0.1,0.1-0.2,0.1s-0.2,0.1-0.2,0.1c-0.1,0-0.2,0-0.3,0H356v-0.9h0.6c0.1,0,0.1,0,0.2,0s0.1,0,0.2,0.1
				c0.1,0,0.1,0.1,0.1,0.1C357.2,53.6,357.2,53.6,357.2,53.7z"/>
		</g>
	</g>
</g>
<path class="st0" d="M177.8,81.3"/>
</svg>
